<svg width="65" height="65" viewBox="0 0 65 65" fill="none" xmlns="http://www.w3.org/2000/svg">
<g clip-path="url(#clip0_54133_8269)">
<path d="M36.413 15.2434C38.4844 17.9005 41.1737 22.1574 42.6637 27.8014C44.1979 33.613 43.998 38.2681 43.5287 41.3249C44.189 41.1919 44.7441 41.0575 45.1736 40.9424C46.4146 40.6096 47.4805 40.0044 48.341 39.1438C49.1356 38.3493 49.7297 37.3748 50.1653 36.3074C49.5384 32.3748 48.6027 28.5508 48.0151 26.3242C47.4179 24.0619 46.3198 20.2005 44.8756 16.3998C44.3565 15.0332 43.7922 13.675 43.1907 12.4011C42.1026 10.0981 40.8919 8.07228 39.6006 6.78084C39.4834 6.66358 39.3647 6.54819 39.2456 6.434C38.4524 5.67448 37.6166 4.98385 36.7475 4.36052C36.656 4.29496 36.565 4.22887 36.4731 4.16478C27.5574 -2.0302 15.1828 -1.15756 7.24186 6.78351C-0.710144 14.7356 -1.57426 27.1337 4.64964 36.0523C4.73079 35.6808 4.8198 35.3094 4.9192 34.9382C5.68538 32.0783 8.0167 28.5866 10.6579 25.3142C11.4343 21.1141 14.2302 17.1016 15.895 15.4369C17.7121 13.6199 21.7312 10.8312 25.911 10.1188C27.3385 9.87566 28.7844 9.87513 30.1679 10.238C31.5127 10.5905 32.7982 11.2854 33.9499 12.4368C34.1091 12.5961 34.3125 12.8038 34.5509 13.0583C35.0457 13.5866 35.6919 14.318 36.413 15.2434Z" fill="white"/>
<path d="M41.8534 42.959C38.5165 43.4242 33.485 43.6253 27.8527 42.0932C22.0523 40.516 18.1209 38.0155 15.7083 36.0806C15.4931 36.719 15.332 37.2669 15.2172 37.6963C14.8846 38.9376 14.8757 40.1632 15.1909 41.3387C15.4817 42.4243 16.0287 43.4259 16.7348 44.3371C20.4543 45.7603 24.2338 46.8621 26.4559 47.4663C28.7135 48.0801 32.6069 49.0601 36.6202 49.7098C38.0633 49.9434 39.5217 50.1339 40.9259 50.25C43.4644 50.4592 45.8241 50.4236 47.588 49.9511C47.7483 49.9082 47.9072 49.8633 48.0659 49.8169C49.1204 49.5095 50.1361 49.1312 51.1103 48.6903C51.2133 48.6437 51.3159 48.5982 51.4175 48.5502C61.2404 43.9269 66.672 32.7738 63.7656 21.9259C60.8549 11.0631 50.5497 4.11584 39.7141 5.04671C39.9951 5.30281 40.2722 5.56558 40.5441 5.83714C42.6379 7.93073 44.496 11.6955 46.0092 15.6193C49.2584 18.3919 51.3355 22.8192 51.945 25.0934C52.6099 27.5755 53.0154 32.4507 51.5423 36.4265C51.0396 37.7843 50.3166 39.037 49.3109 40.0537C48.3329 41.0418 47.0884 41.8076 45.5158 42.2295C45.2979 42.2878 45.0163 42.3598 44.6767 42.4392C43.9721 42.6031 43.0155 42.7971 41.8534 42.959Z" fill="white"/>
<path d="M15.1257 33.8121C16.391 30.6897 18.7327 26.232 22.8757 22.1201C27.1418 17.8855 31.2731 15.731 34.1549 14.6092C33.7098 14.1039 33.3158 13.6903 33.0015 13.3761C32.0927 12.4674 31.0358 11.8471 29.86 11.532C28.7747 11.2412 27.6336 11.2139 26.4914 11.3703C23.3993 13.8795 20.555 16.6019 18.921 18.2242C17.2603 19.8724 14.4653 22.7539 11.8957 25.9051C10.9718 27.0381 10.0776 28.2057 9.27554 29.3638C7.82486 31.4575 6.67586 33.5187 6.20323 35.2829C6.16032 35.4427 6.11942 35.6033 6.08037 35.7636C5.81907 36.8303 5.63892 37.8993 5.53352 38.9636C5.52233 39.0758 5.51087 39.1875 5.50128 39.2994C4.59412 50.1181 11.537 60.3984 22.3848 63.305C33.2473 66.216 44.4166 60.7649 49.0285 50.9156C48.6659 51.0313 48.3 51.1399 47.9289 51.2393C45.0687 52.0057 40.8795 51.7324 36.7246 51.081C32.699 52.509 27.8261 52.0939 25.5522 51.4843C23.07 50.8191 18.6454 48.7329 15.9386 45.4692C15.014 44.3549 14.2907 43.1027 13.9131 41.7232C13.5462 40.3823 13.5054 38.9215 13.9264 37.3485C13.9849 37.1307 14.063 36.8509 14.1643 36.5172C14.3743 35.8248 14.685 34.8993 15.1257 33.8121Z" fill="white"/>
</g>
<defs>
<clipPath id="clip0_54133_8269">
<rect width="64" height="64" fill="white" transform="translate(0.544922 0.0917969)"/>
</clipPath>
</defs>
</svg>
